<svg width="32" height="32" viewBox="0 0 32 32" fill="none" xmlns="http://www.w3.org/2000/svg">
<g id="cib:youtube">
<path id="Vector" d="M31.328 8.27127C31.1422 7.60701 30.788 7.00198 30.2997 6.51476C29.8115 6.02755 29.2057 5.67466 28.541 5.49027C26.046 4.82327 16.016 4.82327 16.016 4.82327C16.016 4.82327 6.00499 4.80727 3.48399 5.49027C2.82039 5.67547 2.21579 6.02873 1.72862 6.5159C1.24145 7.00307 0.888194 7.60767 0.702994 8.27127C0.229194 10.8255 -0.0041601 13.4185 0.00599385 16.0163C0.00137076 18.6016 0.234688 21.1818 0.702994 23.7243C0.888793 24.3882 1.24215 24.9933 1.72915 25.4813C2.21615 25.9694 2.82044 26.324 3.48399 26.5113C5.97899 27.1783 16.016 27.1783 16.016 27.1783C16.016 27.1783 26.021 27.1783 28.541 26.5113C29.2056 26.3249 29.8111 25.9706 30.2992 25.4825C30.7873 24.9944 31.1416 24.3889 31.328 23.7243C31.787 21.1833 32.011 18.5993 31.995 16.0163C32.011 13.4163 31.792 10.8283 31.328 8.27127ZM12.812 20.8033V11.2083L21.161 16.0163L12.812 20.8033Z" fill="#F3FFF9"/>
</g>
</svg>
