<svg width="100" height="100" viewBox="0 0 100 100" fill="none" xmlns="http://www.w3.org/2000/svg">
<g id="Frame 24">
<g id="Rectangle 34" filter="url(#filter0_b_1783_563)">
<rect width="100" height="100" rx="20" fill="url(#paint0_linear_1783_563)" fill-opacity="0.1"/>
<rect x="0.5" y="0.5" width="99" height="99" rx="19.5" stroke="url(#paint1_linear_1783_563)" stroke-opacity="0.1"/>
</g>
<path id="Vector" fill-rule="evenodd" clip-rule="evenodd" d="M69.8209 25.3413C70.4356 25.0391 71.1085 24.9349 71.7694 25.0395C72.4304 25.144 73.0553 25.4536 73.579 25.9359C74.1028 26.4182 74.5062 27.0557 74.7474 27.7819C74.9887 28.5081 75.0588 29.2965 74.9505 30.0651L69.3084 70.0322C68.7611 73.8874 65.139 76.0982 62.1114 74.1779C59.5789 72.5713 55.8175 70.0961 52.4342 67.5133C50.7426 66.2205 45.5607 62.0806 46.1975 59.1347C46.7448 56.6159 55.4518 47.1507 60.4272 41.5233C62.3801 39.3124 61.4895 38.037 59.1834 40.0707C53.4567 45.12 44.2621 52.7984 41.2221 54.9599C38.5403 56.8657 37.1422 57.1911 35.4705 56.8657C32.4206 56.2731 29.592 55.355 27.2834 54.2365C24.1638 52.7258 24.3156 47.7172 27.281 46.2588L69.8209 25.3413Z" fill="#04F280"/>
</g>
<defs>
<filter id="filter0_b_1783_563" x="-20" y="-20" width="140" height="140" filterUnits="userSpaceOnUse" color-interpolation-filters="sRGB">
<feFlood flood-opacity="0" result="BackgroundImageFix"/>
<feGaussianBlur in="BackgroundImageFix" stdDeviation="10"/>
<feComposite in2="SourceAlpha" operator="in" result="effect1_backgroundBlur_1783_563"/>
<feBlend mode="normal" in="SourceGraphic" in2="effect1_backgroundBlur_1783_563" result="shape"/>
</filter>
<linearGradient id="paint0_linear_1783_563" x1="50" y1="0" x2="50" y2="100" gradientUnits="userSpaceOnUse">
<stop stop-color="#04F28E"/>
<stop offset="1" stop-color="#7EF5B9" stop-opacity="0"/>
</linearGradient>
<linearGradient id="paint1_linear_1783_563" x1="119" y1="-42.5" x2="-19" y2="146.5" gradientUnits="userSpaceOnUse">
<stop stop-color="white" stop-opacity="0.1"/>
<stop offset="1" stop-color="white" stop-opacity="0"/>
</linearGradient>
</defs>
</svg>
