<svg width="100" height="100" viewBox="0 0 100 100" fill="none" xmlns="http://www.w3.org/2000/svg">
<g id="Frame 22">
<g id="Rectangle 30" filter="url(#filter0_b_1783_566)">
<rect width="100" height="100" rx="20" fill="url(#paint0_linear_1783_566)" fill-opacity="0.1"/>
<rect x="0.5" y="0.5" width="99" height="99" rx="19.5" stroke="url(#paint1_linear_1783_566)" stroke-opacity="0.1"/>
</g>
<path id="Vector" d="M54.7579 46.1227L73.3684 25H68.9579L52.7947 43.3393L39.8895 25H25L44.5211 52.7346L25 74.8824H29.4105L46.4789 55.5156L60.1105 74.8824H75L54.7579 46.1227ZM48.7158 52.9766L46.7368 50.2156L31 28.2424H37.7763L50.4763 45.9756L52.4526 48.7366L68.9605 71.7872H62.1868L48.7158 52.9766Z" fill="#04F280"/>
</g>
<defs>
<filter id="filter0_b_1783_566" x="-20" y="-20" width="140" height="140" filterUnits="userSpaceOnUse" color-interpolation-filters="sRGB">
<feFlood flood-opacity="0" result="BackgroundImageFix"/>
<feGaussianBlur in="BackgroundImageFix" stdDeviation="10"/>
<feComposite in2="SourceAlpha" operator="in" result="effect1_backgroundBlur_1783_566"/>
<feBlend mode="normal" in="SourceGraphic" in2="effect1_backgroundBlur_1783_566" result="shape"/>
</filter>
<linearGradient id="paint0_linear_1783_566" x1="50" y1="0" x2="50" y2="100" gradientUnits="userSpaceOnUse">
<stop stop-color="#04F28E"/>
<stop offset="1" stop-color="#7EF5B9" stop-opacity="0"/>
</linearGradient>
<linearGradient id="paint1_linear_1783_566" x1="119" y1="-42.5" x2="-19" y2="146.5" gradientUnits="userSpaceOnUse">
<stop stop-color="white" stop-opacity="0.1"/>
<stop offset="1" stop-color="white" stop-opacity="0"/>
</linearGradient>
</defs>
</svg>
