<svg width="33" height="32" viewBox="0 0 33 32" fill="none" xmlns="http://www.w3.org/2000/svg">
<g id="icomoon-free:github">
<path id="Vector" d="M16 0.395606C12.1993 0.393807 8.5221 1.74503 5.62685 4.2073C2.7316 6.66958 0.807418 10.0821 0.198866 13.8337C-0.409687 17.5854 0.33714 21.4312 2.30561 24.6824C4.27408 27.9336 7.33563 30.3779 10.942 31.5776C11.742 31.7256 12.036 31.2296 12.036 30.8076C12.036 30.4256 12.02 29.1656 12.014 27.8296C7.56201 28.7976 6.62401 25.9416 6.62401 25.9416C5.89601 24.0916 4.84801 23.5996 4.84801 23.5996C3.39601 22.6056 4.95801 22.6276 4.95801 22.6276C6.56401 22.7396 7.41001 24.2756 7.41001 24.2756C8.83801 26.7216 11.154 26.0136 12.066 25.6056C12.21 24.5716 12.624 23.8656 13.082 23.4656C9.52801 23.0616 5.79201 21.6896 5.79201 15.5576C5.79201 13.8116 6.41801 12.3836 7.44001 11.2636C7.27401 10.8596 6.72601 9.23361 7.59401 7.02961C7.59401 7.02961 8.93801 6.59961 11.996 8.66961C13.3011 8.31458 14.6475 8.13368 16 8.13161C17.36 8.13761 18.73 8.31561 20.008 8.66961C23.062 6.59961 24.404 7.02961 24.404 7.02961C25.274 9.23361 24.728 10.8616 24.562 11.2636C25.588 12.3836 26.208 13.8116 26.208 15.5576C26.208 21.7036 22.464 23.0556 18.902 23.4516C19.476 23.9476 19.988 24.9216 19.988 26.4136C19.988 28.5536 19.97 30.2776 19.97 30.8036C19.97 31.2296 20.258 31.7276 21.07 31.5716C24.6757 30.3705 27.7362 27.9252 29.7034 24.6735C31.6706 21.4217 32.4161 17.5759 31.8063 13.8246C31.1966 10.0734 29.2715 6.66165 26.3757 4.20033C23.4799 1.73902 19.8025 0.388857 16.002 0.391606L16 0.395606Z" fill="#F3FFF9"/>
</g>
</svg>
