<svg width="33" height="32" viewBox="0 0 33 32" fill="none" xmlns="http://www.w3.org/2000/svg">
<g id="linkedin">
<path id="Vector" d="M5.0918 26.7917H10.0547V12.3333H5.0918V26.7917ZM10.377 7.875C10.3626 7.15278 10.1048 6.55556 9.60352 6.08333C9.10221 5.61111 8.4362 5.375 7.60547 5.375C6.77474 5.375 6.09798 5.61111 5.5752 6.08333C5.05241 6.55556 4.79102 7.15278 4.79102 7.875C4.79102 8.58333 5.04525 9.17708 5.55371 9.65625C6.06217 10.1354 6.72461 10.375 7.54102 10.375H7.5625C8.40755 10.375 9.08789 10.1354 9.60352 9.65625C10.1191 9.17708 10.377 8.58333 10.377 7.875ZM22.9453 26.7917H27.9082V18.5C27.9082 16.3611 27.3854 14.7431 26.3398 13.6458C25.2943 12.5486 23.9121 12 22.1934 12C20.2454 12 18.7487 12.8125 17.7031 14.4375H17.7461V12.3333H12.7832C12.8262 13.25 12.8262 18.0694 12.7832 26.7917H17.7461V18.7083C17.7461 18.1806 17.7962 17.7917 17.8965 17.5417C18.1113 17.0556 18.4336 16.6424 18.8633 16.3021C19.293 15.9618 19.8229 15.7917 20.4531 15.7917C22.1146 15.7917 22.9453 16.8819 22.9453 19.0625V26.7917ZM33 6V26C33 27.6528 32.3949 29.066 31.1846 30.2396C29.9743 31.4132 28.5169 32 26.8125 32H6.1875C4.48307 32 3.02572 31.4132 1.81543 30.2396C0.605143 29.066 0 27.6528 0 26V6C0 4.34722 0.605143 2.93403 1.81543 1.76042C3.02572 0.586806 4.48307 0 6.1875 0H26.8125C28.5169 0 29.9743 0.586806 31.1846 1.76042C32.3949 2.93403 33 4.34722 33 6Z" fill="#F3FFF9"/>
</g>
</svg>
