<svg width="201" height="75" viewBox="0 0 201 75" fill="none" xmlns="http://www.w3.org/2000/svg">
<g id="Vector">
<path id="Vector_2" d="M196.484 70.8273C196.801 70.8273 196.985 70.6854 196.985 70.385V70.0846C196.985 69.7925 196.801 69.6506 196.484 69.6506H195.733V70.819L196.484 70.8273ZM195.733 73.0138H194.723V68.8578H196.601C197.535 68.8578 198.011 69.4086 198.011 70.168C198.011 70.8273 197.711 71.2446 197.26 71.4198L198.186 73.0054H197.076L196.309 71.5867H195.724L195.733 73.0138ZM199.355 71.1611V70.6437C199.355 68.9746 198.044 67.6644 196.325 67.6644C195.929 67.6555 195.535 67.7261 195.167 67.872C194.799 68.0179 194.464 68.2362 194.181 68.514C193.899 68.7918 193.675 69.1234 193.523 69.4892C193.371 69.855 193.294 70.2476 193.296 70.6437V71.1611C193.296 72.8302 194.598 74.1488 196.325 74.1488C196.722 74.1577 197.117 74.0869 197.485 73.9404C197.854 73.794 198.19 73.5749 198.472 73.2963C198.755 73.0176 198.979 72.685 199.13 72.3182C199.282 71.9514 199.358 71.558 199.355 71.1611ZM192.361 70.9108C192.361 68.5741 194.13 66.8048 196.325 66.8048C198.528 66.8048 200.289 68.5824 200.289 70.9024C200.305 71.4335 200.214 71.9624 200.022 72.4578C199.83 72.9532 199.541 73.4052 199.171 73.7871C198.802 74.169 198.36 74.473 197.871 74.6814C197.382 74.8897 196.857 74.998 196.325 75C195.795 74.998 195.27 74.8899 194.782 74.6821C194.293 74.4743 193.852 74.171 193.482 73.79C193.113 73.409 192.824 72.958 192.631 72.4636C192.438 71.9691 192.347 71.4412 192.361 70.9108ZM135.279 5.20752L133.476 0H103.767V5.20752H135.279ZM138.725 15.1385L136.923 9.93935H103.767V15.1469L138.725 15.1385ZM160.841 74.783H186.77V69.5755H160.832L160.841 74.783ZM160.841 64.8353H186.77V59.6362H160.832L160.841 64.8353ZM160.841 54.9043H176.396V49.6968H160.832L160.841 54.9043ZM160.841 44.965H176.396V39.7574H160.832L160.841 44.965ZM160.841 35.0256H176.396V29.8181H146.729L145.268 34.0242L143.808 29.8181H114.14V35.0256H129.704V30.2353L131.373 35.0256H159.163L160.832 30.2353L160.841 35.0256ZM176.396 19.8787H150.175L148.364 25.0862H176.396V19.8787ZM114.14 44.965H129.704V39.7574H114.14V44.965ZM114.14 54.896H129.704V49.6968H114.14V54.896ZM103.767 64.8353H129.704V59.6362H103.767V64.8353ZM103.767 74.783H129.704V69.5755H103.767V74.783ZM157.06 0L155.258 5.20752H186.77V0H157.06ZM151.811 15.1469H186.778V9.93935H153.614L151.811 15.1469ZM114.14 25.0779H142.172L140.369 19.8787H114.14V25.0779ZM134.853 44.965H155.683L157.503 39.7574H133.034L134.853 44.965ZM138.333 54.896H152.203L154.022 49.6968H136.514L138.333 54.896ZM141.805 64.8353H148.732L150.551 59.6362H139.986L141.805 64.8353ZM145.26 74.783L147.071 69.5755H143.466L145.26 74.783ZM41.5016 74.733L79.7068 74.783C84.8976 74.783 89.5544 72.8052 93.0761 69.5755H41.5016V74.733ZM82.0602 49.6968V54.9043H99.5188C99.5188 53.1017 99.2684 51.3575 98.8261 49.6968H82.0602ZM51.8833 54.9043H67.4474V49.6968H51.8833V54.9043ZM82.0686 25.0862H98.8261C99.2684 23.4255 99.5188 21.6813 99.5188 19.8787H82.0686V25.0862ZM51.8833 25.0862H67.4474V19.8787H51.8833V25.0862ZM79.6985 0.00834478H41.5016V5.21586H93.0761C89.433 1.86079 84.6511 0.0014655 79.6985 0.00834478ZM96.8566 9.9477H41.5016V15.1552H98.9513C98.5055 13.3295 97.803 11.5762 96.8649 9.9477H96.8566ZM51.8749 29.8264V35.0339H92.517C94.2445 33.5652 95.7049 31.8043 96.8482 29.8264H51.8749ZM92.517 39.7658H51.8749V44.9733H96.8482C95.7119 43.0032 94.2471 41.242 92.517 39.7658ZM41.4933 64.852H96.8566C97.7746 63.2414 98.4923 61.4972 98.9429 59.6445H41.5016L41.4933 64.852ZM0 5.20752H36.3191V0H0V5.20752ZM0 15.1469H36.3191V9.93935H0V15.1469ZM10.3733 25.0862H25.9375V19.8787H10.3733V25.0862ZM10.3733 35.0256H25.9375V29.8181H10.3733V35.0256ZM10.3733 44.9566H25.9375V39.7574H10.3733V44.9566ZM10.3733 54.9043H25.9375V49.6968H10.3733V54.9043ZM0 64.8437H36.3191V59.6445H0V64.8437ZM0 74.7914H36.3191V69.5838H0V74.7914Z" fill="#ACC1B7"/>
</g>
</svg>
