<svg width="92" height="76" viewBox="0 0 92 76" fill="none" xmlns="http://www.w3.org/2000/svg">
<g id="Frame 27">
<path id="Vector" d="M91.6667 49.3806C91.6667 63.7082 80 75.3363 65.625 75.3363H26.0417C11.6667 75.3363 0 63.7082 0 49.3806C0 40.4934 4.5 32.6444 11.2917 27.9932C14.9167 12.2952 29 0.583984 45.8333 0.583984C62.6667 0.583984 76.75 12.2952 80.375 27.9932C83.8641 30.3703 86.7171 33.5617 88.6852 37.2895C90.6533 41.0173 91.6768 45.1683 91.6667 49.3806ZM65.125 58.7247C70.5833 58.7247 75 54.3226 75 48.8823C75 43.5666 70.8333 39.206 65.5 38.9984L65.625 36.9219C65.6217 32.9128 64.3939 28.9997 62.1049 25.7031C59.8159 22.4065 56.5742 19.8825 52.8109 18.4669C49.0476 17.0513 44.9411 16.8112 41.0376 17.7785C37.134 18.7457 33.6184 20.8745 30.9583 23.8818C37.2083 25.0861 42.625 28.4915 46.4167 33.2258L35.4167 44.1895C33.6667 41.1579 30.375 38.9984 26.5833 38.9984C21.0833 38.9984 16.6667 43.4005 16.6667 48.8823C16.6667 54.1565 20.8333 58.434 26.0417 58.7247H65.125Z" fill="#ACC1B7"/>
</g>
</svg>
