<svg width="75" height="76" viewBox="0 0 75 76" fill="none" xmlns="http://www.w3.org/2000/svg">
<g id="Frame 28">
<path id="Vector" d="M66.8365 62.0248C66.5268 61.9406 66.1514 61.9873 65.7196 62.1464C59.9381 64.7844 54.3162 66.6646 48.8538 67.7778C37.0562 70.1726 25.5588 68.9191 14.3713 64.0266C11.2646 62.6609 6.94728 60.3596 1.41918 57.1043C1.27674 56.9922 1.10297 56.9268 0.921749 56.9172C0.734038 56.9078 0.574484 56.9265 0.424315 57.0014C0.274146 57.0762 0.161519 57.1697 0.0770487 57.2914C-0.00742136 57.413 -0.0261919 57.5813 0.039507 57.7965C0.0958204 58.0023 0.236604 58.2362 0.471243 58.4887C1.44734 59.63 2.65808 60.8461 4.09407 62.137C5.53006 63.4279 7.43533 64.8873 9.80987 66.515C12.1844 68.1427 14.6716 69.5926 17.2526 70.8555C19.843 72.1183 22.8464 73.1848 26.2721 74.0454C29.6979 74.906 33.1236 75.3363 36.5399 75.3363C39.9375 75.3363 43.2412 74.9902 46.4417 74.3167C49.6516 73.6338 52.3546 72.8293 54.5602 71.8938C56.7564 70.9677 58.7837 69.9294 60.6421 68.8068C62.5004 67.6843 63.8707 66.7301 64.7623 65.9724C65.6539 65.2053 66.2922 64.6066 66.6582 64.1576C67.0899 63.6244 67.3058 63.166 67.3058 62.7638C67.3152 62.3428 67.1462 62.0996 66.8365 62.0248ZM38.9051 22.6608C37.4785 22.7824 35.7609 23.0443 33.743 23.4372C31.7252 23.8207 29.8574 24.3072 28.1305 24.8778C26.4035 25.4484 24.6391 26.2436 22.8464 27.2538C21.0444 28.2641 19.5145 29.4241 18.2475 30.715C16.9804 32.006 15.948 33.6243 15.1409 35.5794C14.3337 37.5252 13.9301 39.6674 13.9301 42.006C13.9301 44.5411 14.3713 46.7955 15.2723 48.7881C16.1639 50.7806 17.3559 52.3428 18.8576 53.5028C20.3499 54.6627 22.0486 55.5701 23.9258 56.2343C25.8029 56.8985 27.7926 57.1978 29.8574 57.1136C31.9223 57.0294 33.9401 56.7114 35.9017 56.1501C37.8539 55.5982 39.6935 54.7095 41.4017 53.5028C43.1098 52.296 44.5083 50.8648 45.6064 49.2277C46.01 49.8451 46.3666 50.3035 46.6857 50.6028L47.5023 51.4354C48.0466 51.9873 48.882 52.8012 50.0082 53.8769C51.1251 54.9527 52.2701 56.0004 53.4152 57.0294L63.2137 47.6842L62.6506 47.2258C62.247 46.9171 61.7683 46.4775 61.224 45.8881C60.6796 45.3082 60.1352 44.6627 59.6096 43.9705C59.0747 43.2782 58.6148 42.4644 58.23 41.5476C57.8452 40.6309 57.6481 39.7422 57.6481 38.8816V14.2978C57.6481 13.353 57.4697 12.3333 57.1131 11.2295C56.7471 10.135 56.1088 8.93761 55.1703 7.64668C54.2317 6.35575 53.0679 5.19579 51.6789 4.18549C50.2804 3.1752 48.4221 2.31458 46.0851 1.62234C43.7574 0.930103 41.1483 0.583984 38.2763 0.583984C35.3386 0.583984 32.6074 0.930103 30.0545 1.60363C27.511 2.28652 25.3336 3.19391 23.5128 4.33516C21.7014 5.47642 20.1434 6.79542 18.8482 8.3015C17.553 9.80759 16.5862 11.3792 15.9574 13.0162C15.3286 14.6532 15.0095 16.309 15.0095 17.9835L27.6987 19.0967C28.215 17.5625 28.9095 16.2342 29.7636 15.0929C30.627 13.9517 31.4436 13.1285 32.185 12.614C32.9359 12.0995 33.743 11.6879 34.5971 11.3792C35.4606 11.0705 36.0425 10.9114 36.3428 10.874C36.6432 10.8459 36.8778 10.8366 37.0562 10.8366C39.5621 10.8366 41.2984 11.5756 42.2745 13.0443C42.8846 13.9329 43.1849 15.28 43.1849 17.0948V22.3895C41.7583 22.4456 40.3317 22.5391 38.9051 22.6608ZM43.1943 36.8703C43.1943 38.4232 42.9878 39.8357 42.5842 41.0799C41.7208 43.8021 40.0783 45.514 37.6662 46.2062C35.5639 46.8236 33.5647 46.5149 31.6688 45.2894C29.6509 43.9798 28.6467 42.1276 28.6467 39.7422C28.6467 37.8806 29.116 36.2904 30.0545 34.962C30.9931 33.643 32.2414 32.6514 33.8088 31.9966C35.3761 31.3418 36.906 30.8741 38.4077 30.6028C39.9 30.3221 41.5049 30.1538 43.1943 30.0976V36.8703ZM74.6547 57.3475C74.2511 56.8423 73.1624 56.5149 71.3791 56.3465C69.5959 56.1782 68.0473 56.1875 66.7145 56.384C65.2785 56.5523 63.7956 56.9639 62.2752 57.6375C60.7453 58.3016 60.0789 58.8629 60.2479 59.3026L60.3136 59.4242L60.398 59.4897L60.5294 59.5084H60.9612C61.0363 59.5084 61.1301 59.499 61.2615 59.4897C61.3929 59.4803 61.5149 59.4616 61.6275 59.4523C61.7402 59.4429 61.8997 59.4242 62.1062 59.4148C62.3033 59.4055 62.491 59.3774 62.6693 59.3494C62.6975 59.3494 63.0166 59.3213 63.6361 59.2652C64.2555 59.209 64.706 59.1716 64.9782 59.1436C65.2504 59.1155 65.7103 59.0874 66.3391 59.0594C66.9679 59.0313 67.4747 59.0313 67.8502 59.0594C68.2256 59.0874 68.6479 59.1248 69.1266 59.1623C69.6053 59.1997 69.9901 59.2839 70.2904 59.4148C70.5908 59.5364 70.816 59.6955 70.9568 59.8919C71.4448 60.5093 71.351 61.8751 70.6752 63.9986C69.9995 66.1221 69.3612 67.8152 68.7606 69.0688C68.4978 69.602 68.4978 69.9294 68.7606 70.0697C69.0234 70.21 69.3894 70.079 69.8774 69.6955C71.3416 68.5543 72.5617 66.833 73.5472 64.5224C74.1197 63.1567 74.5327 61.7348 74.7767 60.2474C75.002 58.76 74.9644 57.7965 74.6547 57.3475Z" fill="#ACC1B7"/>
</g>
</svg>
