<svg width="100" height="40" viewBox="0 0 100 40" fill="none" xmlns="http://www.w3.org/2000/svg">
<path id="Vector" d="M0 37.2288H19.4015V40H0V37.2288ZM0 31.8984H19.4015V34.6758H0V31.8984ZM5.52057 26.5742H13.8497V29.3672H5.52057V26.5742ZM5.52057 21.2687H13.8497V24.0617H5.52057V21.2687ZM5.52057 15.9383H13.8497V18.7313H5.52057V15.9383ZM5.52057 10.6141H13.8497V13.4071H5.52057V10.6141ZM0 5.3086H19.4015V8.10162H0V5.3086ZM0 1.01658e-06H19.4015V2.7712H0V1.01658e-06ZM22.1602 34.6758H51.9857C52.4875 33.8155 52.8803 32.8772 53.1047 31.8984H22.1602V34.6758ZM49.6633 21.2687H27.7151V24.0617H52.0044C51.3854 23.012 50.6012 22.0689 49.682 21.2687H49.6633ZM27.6964 15.9383V18.7313H49.6633C50.6079 17.9551 51.3685 17.0106 52.0044 15.9383H27.6964ZM51.9857 5.3086H22.1602V8.10162H53.086C52.8445 7.12602 52.4744 6.18681 51.9857 5.3086ZM42.8304 1.01658e-06H22.1602V2.7712H49.9408C48.0023 0.988019 45.4643 -0.00115756 42.8304 1.01658e-06ZM27.6964 10.6141H36.01V13.4071H27.6964V10.6141ZM44.3391 13.4071H53.0268C53.2742 12.4967 53.4 11.5575 53.4009 10.6141H44.3391V13.4071ZM27.6964 26.5742H36.01V29.3672H27.6964V26.5742ZM44.3391 26.5742V29.3672H53.4009C53.4009 28.4071 53.2668 27.4688 53.0268 26.5742H44.3391ZM22.1602 39.9875L42.8117 40C45.5891 40 48.086 38.9495 49.9564 37.2288H22.1602V39.9875ZM55.4271 37.2288H69.2581V40H55.4271V37.2288ZM55.4271 31.8984H69.2581V34.6758H55.4271V31.8984ZM60.9476 26.5742H69.2612V29.3672H60.9476V26.5742ZM60.9476 21.2687H69.2612V24.0617H60.9476V21.2687ZM73.1266 5.3086H55.4302V8.10162H74.0835L73.1266 5.3086ZM71.2874 1.01658e-06H55.4271V2.7712H72.2475L71.2874 1.01658e-06ZM85.8853 37.2288H99.7506V40H85.8853V37.2288ZM85.8853 31.8984H99.7506V34.6758H85.8853V31.8984ZM85.8853 26.5742H94.1989V29.3672H85.8853V26.5742ZM85.8853 21.2687H94.1989V24.0617H85.8853V21.2687ZM85.8853 18.7313H94.1989V15.9383H78.3666L77.5717 18.1951L76.7955 15.9383H60.9476V18.7313H69.2612V16.1658L70.1559 18.7313H85.0093L85.8853 16.1658V18.7313ZM94.1989 10.6141H80.2057L79.2456 13.4071H94.1989V10.6141ZM83.8903 1.01658e-06L82.9302 2.7712H99.7506V1.01658e-06H83.8903ZM77.5717 39.9875L78.5318 37.2288H76.6147L77.5717 39.9875ZM75.7388 34.6758H79.4202L80.4146 31.8984H74.7631L75.7388 34.6758ZM73.8685 29.3672H81.2905L82.2631 26.5742H72.8959L73.8685 29.3672ZM72.0199 24.0617H83.1577L84.096 21.2687H71.063L72.0199 24.0617ZM60.9476 13.4071H75.9196L74.9595 10.6141H60.9476V13.4071ZM81.0973 8.10162H99.7506V5.3086H82.0355L81.0973 8.10162Z" fill="#D6D6D6"/>
</svg>
